<?xml version="1.0" encoding="utf-8"?>
<!-- Generator: Adobe Illustrator 16.0.0, SVG Export Plug-In . SVG Version: 6.00 Build 0)  -->
<!DOCTYPE svg PUBLIC "-//W3C//DTD SVG 1.1//EN" "http://www.w3.org/Graphics/SVG/1.1/DTD/svg11.dtd">
<svg version="1.1" id="Capa_1" xmlns="http://www.w3.org/2000/svg" xmlns:xlink="http://www.w3.org/1999/xlink" x="0px" y="0px"
	 width="16px" height="16px" viewBox="14.279 14.279 16 16" enable-background="new 14.279 14.279 16 16" xml:space="preserve">
<g>
	<g>
		<path d="M29.57,21.773l-7.177-7.178c-0.283-0.283-0.653-0.424-1.023-0.424s-0.741,0.141-1.023,0.424l-3.93,3.93
			c-0.566,0.565-0.566,1.5,0,2.065l0.651,0.67h1.503l-1.403-1.42c-0.099-0.099-0.113-0.222-0.113-0.282
			c0-0.06,0.015-0.178,0.113-0.277l0.519-0.502l2.466,2.482h2.366l-3.649-3.667l2.228-2.237c0.099-0.099,0.213-0.118,0.273-0.118
			c0.059,0,0.174,0.012,0.272,0.11l7.178,7.177c0.098,0.099,0.113,0.212,0.113,0.272c0,0.06-0.025,0.174-0.123,0.272l-0.407,0.397
			v1.502l1.158-1.148C30.125,23.254,30.135,22.338,29.57,21.773z"/>
		<path d="M26.201,21.932h-10.15c-0.8,0-1.483,0.644-1.483,1.444v3.84h13.063v-3.84C27.631,22.576,27.002,21.932,26.201,21.932z
			 M18.115,25.908c-0.283,0-0.54-0.113-0.729-0.296c-0.189,0.183-0.446,0.296-0.729,0.296c-0.582,0-1.054-0.472-1.054-1.055
			c0-0.581,0.472-1.052,1.054-1.052c0.283,0,0.541,0.111,0.729,0.293c0.189-0.182,0.446-0.293,0.729-0.293
			c0.582,0,1.054,0.471,1.054,1.052C19.169,25.437,18.697,25.908,18.115,25.908z"/>
		<path d="M14.568,28.934c0,0.8,0.683,1.451,1.483,1.451h10.15c0.801,0,1.432-0.651,1.432-1.451v-0.086H14.568V28.934z"/>
	</g>
</g>
</svg>
