<?xml version="1.0" encoding="utf-8"?>
<!-- Generator: Adobe Illustrator 16.0.0, SVG Export Plug-In . SVG Version: 6.00 Build 0)  -->
<!DOCTYPE svg PUBLIC "-//W3C//DTD SVG 1.1//EN" "http://www.w3.org/Graphics/SVG/1.1/DTD/svg11.dtd">
<svg version="1.1" id="Capa_1" xmlns="http://www.w3.org/2000/svg" xmlns:xlink="http://www.w3.org/1999/xlink" x="0px" y="0px"
	 width="16px" height="16px" viewBox="159.54 159.54 16 16" enable-background="new 159.54 159.54 16 16" xml:space="preserve">
<g>
	<g>
		<path d="M174.106,165.172c-0.063-0.465-0.07-1.268,0.361-1.537c0.008-0.005,0.014-0.012,0.021-0.019
			c0.354-0.113,0.599-0.272,0.406-0.485l-5.217-1.572l-8.446,1.174c0,0-0.967,0.138-0.881,1.641c0.046,0.818,0.303,1.22,0.528,1.417
			l-0.693,0.209c-0.192,0.213,0.052,0.372,0.406,0.485c0.007,0.006,0.013,0.013,0.021,0.019c0.432,0.27,0.424,1.071,0.361,1.537
			c-1.553,0.441-0.995,0.584-0.995,0.584l0.341,0.083c-0.24,0.217-0.478,0.627-0.433,1.406c0.086,1.502,0.881,1.605,0.881,1.605
			l5.527,1.797l8.343-2.021c0,0,0.558-0.145-0.996-0.585c-0.063-0.466-0.07-1.268,0.362-1.537c0.008-0.005,0.015-0.012,0.021-0.019
			c0.354-0.112,0.598-0.271,0.405-0.485l-0.361-0.109c0.241-0.146,0.604-0.527,0.661-1.517c0.039-0.681-0.138-1.08-0.344-1.314
			l0.717-0.174C175.102,165.757,175.659,165.614,174.106,165.172z M167.127,165.153l1.404-0.289l4.741-0.974l0.706-0.146
			c-0.226,0.414-0.217,0.979-0.18,1.342c0.009,0.082,0.018,0.157,0.027,0.214l-0.772,0.193l-5.985,1.488L167.127,165.153z
			 M161.101,166.616l0.706,0.145l4.553,0.936l0.398,0.082l0,0l0,0l1.193,0.246l0.058,1.828l-6.15-1.529l-0.607-0.15
			c0.009-0.058,0.019-0.133,0.027-0.215C161.317,167.594,161.327,167.028,161.101,166.616z M160.826,164.303
			c-0.008-0.399,0.063-0.688,0.207-0.835c0.092-0.094,0.2-0.113,0.274-0.113c0.039,0,0.067,0.005,0.069,0.005l3.639,1.187
			l1.816,0.592l-0.059,1.842l-5.095-1.428l-0.269-0.075c-0.01-0.003-0.023-0.005-0.034-0.005
			C161.354,165.47,160.851,165.423,160.826,164.303z M166.307,172.72l-5.363-1.503c-0.009-0.003-0.023-0.005-0.033-0.006
			c-0.021-0.001-0.525-0.047-0.55-1.168c-0.009-0.4,0.063-0.688,0.207-0.836c0.092-0.094,0.2-0.113,0.274-0.113
			c0.039,0,0.067,0.006,0.069,0.006l0,0l5.455,1.778L166.307,172.72z M173.334,170.828c0.009,0.082,0.018,0.157,0.027,0.214
			l-6.758,1.681l0.06-1.828l1.444-0.298l0.214,0.052l0.8-0.26l3.687-0.758l0.707-0.146
			C173.287,169.899,173.296,170.463,173.334,170.828z M173.706,168.341c-0.012,0-0.024,0.002-0.036,0.005l-0.51,0.144l-4.853,1.36
			l-0.06-1.842l1.593-0.52l3.854-1.257c0.001,0,0.203-0.045,0.352,0.106c0.144,0.147,0.215,0.436,0.207,0.835
			C174.229,168.292,173.724,168.34,173.706,168.341z"/>
	</g>
</g>
</svg>
