<?xml version="1.0" encoding="utf-8"?>
<!-- Generator: Adobe Illustrator 16.0.0, SVG Export Plug-In . SVG Version: 6.00 Build 0)  -->
<!DOCTYPE svg PUBLIC "-//W3C//DTD SVG 1.1//EN" "http://www.w3.org/Graphics/SVG/1.1/DTD/svg11.dtd">
<svg version="1.1" id="Capa_1" xmlns="http://www.w3.org/2000/svg" xmlns:xlink="http://www.w3.org/1999/xlink" x="0px" y="0px"
	 width="16px" height="16px" viewBox="231.063 231.062 16 16" enable-background="new 231.063 231.062 16 16" xml:space="preserve">
<g>
	<path d="M245.144,231.702h0.319v-0.64h-11.2c-0.896,0-1.6,0.704-1.6,1.6v12.48c0,1.088,0.833,1.92,1.92,1.92h0.64v-13.44h-0.96
		c-0.512,0-0.96-0.448-0.96-0.96c0-0.512,0.448-0.96,0.96-0.96h9.601c0,0-0.32,0.448-0.32,0.96c0,0.512,0.32,0.96,0.32,0.96h-8
		v13.44h9.6v-13.44h-0.319c-0.513,0-0.961-0.448-0.961-0.96C244.183,232.15,244.631,231.702,245.144,231.702z"/>
</g>
</svg>
