<?xml version="1.0" encoding="utf-8"?>
<!-- Generator: Adobe Illustrator 16.0.0, SVG Export Plug-In . SVG Version: 6.00 Build 0)  -->
<!DOCTYPE svg PUBLIC "-//W3C//DTD SVG 1.1//EN" "http://www.w3.org/Graphics/SVG/1.1/DTD/svg11.dtd">
<svg version="1.1" id="Capa_1" xmlns="http://www.w3.org/2000/svg" xmlns:xlink="http://www.w3.org/1999/xlink" x="0px" y="0px"
	 width="16px" height="16px" viewBox="15.088 15.088 16 16" enable-background="new 15.088 15.088 16 16" xml:space="preserve">
<g>
	<path d="M28.165,24.763l-2.842-2.476v-2.081h0.275c0.107,0,0.207-0.062,0.249-0.161c0.041-0.099,0.021-0.21-0.055-0.286
		l-2.185-2.19v-0.445h0.332c0.284,0,0.516-0.231,0.516-0.517c0-0.285-0.231-0.516-0.516-0.516h-0.332v-0.444
		c0-0.287-0.233-0.52-0.521-0.52s-0.521,0.233-0.521,0.52v0.444h-0.33c-0.285,0-0.516,0.231-0.516,0.516
		c0,0.285,0.231,0.517,0.516,0.517h0.33v0.445l-2.184,2.189c-0.075,0.076-0.095,0.188-0.054,0.286
		c0.041,0.1,0.142,0.161,0.249,0.161h0.273v2.081l-2.842,2.476c-0.275,0.24-0.369,0.601-0.241,0.941
		c0.128,0.342,0.458,0.522,0.823,0.522h0.187v4.557c0,0.147,0.141,0.266,0.288,0.266h2.788v-2.771c0-0.686,0.549-1.239,1.233-1.239
		c0.684,0,1.234,0.554,1.234,1.239v2.771h2.79c0.146,0,0.284-0.118,0.284-0.266v-4.557h0.19c0.364,0,0.694-0.18,0.822-0.522
		C28.537,25.364,28.44,25.003,28.165,24.763z M23.798,22.228c0,0.107-0.083,0.188-0.191,0.188h-1.02
		c-0.107,0-0.202-0.081-0.202-0.188v-1.195c0-0.389,0.317-0.704,0.706-0.704s0.707,0.315,0.707,0.704V22.228z"/>
</g>
</svg>
