<?xml version="1.0" encoding="utf-8"?>
<!-- Generator: Adobe Illustrator 16.0.0, SVG Export Plug-In . SVG Version: 6.00 Build 0)  -->
<!DOCTYPE svg PUBLIC "-//W3C//DTD SVG 1.1//EN" "http://www.w3.org/Graphics/SVG/1.1/DTD/svg11.dtd">
<svg version="1.1" id="Capa_1" xmlns="http://www.w3.org/2000/svg" xmlns:xlink="http://www.w3.org/1999/xlink" x="0px" y="0px"
	 width="16px" height="16px" viewBox="298 298 16 16" enable-background="new 298 298 16 16" xml:space="preserve">
<g>
	<g id="_x33__13_">
		<g>
			<path d="M313.131,304.981l-3.057,2.037c0-0.618-0.281-1.166-0.716-1.539c1.036-0.624,1.735-1.749,1.735-3.045
				c0-1.969-1.597-3.565-3.566-3.565c-1.968,0-3.564,1.596-3.564,3.565c0,0.999,0.413,1.899,1.075,2.546h-1.868
				c0.488-0.542,0.793-1.25,0.793-2.037c0-1.688-1.368-3.056-3.056-3.056s-3.056,1.368-3.056,3.056c0,0.921,0.416,1.736,1.06,2.297
				c-0.629,0.347-1.06,1.008-1.06,1.777v4.074c0,1.126,0.912,2.037,2.037,2.037h8.148c1.126,0,2.037-0.911,2.037-2.037l3.057,2.037
				c0.563,0,1.019-0.455,1.019-1.019V306C314.149,305.437,313.693,304.981,313.131,304.981z M300.907,304.981
				c-1.125,0-2.037-0.913-2.037-2.037c0-1.125,0.912-2.038,2.037-2.038s2.037,0.913,2.037,2.038
				C302.944,304.069,302.032,304.981,300.907,304.981z M307.527,304.987c-1.409,0-2.551-1.143-2.551-2.552
				c0-1.41,1.143-2.553,2.551-2.553c1.411,0,2.553,1.143,2.553,2.553C310.08,303.844,308.938,304.987,307.527,304.987z"/>
		</g>
	</g>
</g>
</svg>
