<?xml version="1.0" encoding="utf-8"?>
<!-- Generator: Adobe Illustrator 16.0.0, SVG Export Plug-In . SVG Version: 6.00 Build 0)  -->
<!DOCTYPE svg PUBLIC "-//W3C//DTD SVG 1.1//EN" "http://www.w3.org/Graphics/SVG/1.1/DTD/svg11.dtd">
<svg version="1.1" id="Capa_1" xmlns="http://www.w3.org/2000/svg" xmlns:xlink="http://www.w3.org/1999/xlink" x="0px" y="0px"
	 width="16px" height="16px" viewBox="187.206 187.206 16 16" enable-background="new 187.206 187.206 16 16" xml:space="preserve">
<g>
	<g>
		<path d="M201.033,195.864c-0.398-0.487-1.05-0.752-1.888-0.773c-0.023-0.2-0.193-0.355-0.399-0.355h-8.042
			c-0.222,0-0.402,0.18-0.402,0.402v4.662c0,0.926,0.517,1.756,1.349,2.165l0,0c-0.04,0.096-0.061,0.198-0.061,0.303
			c0,0.432,0.351,0.783,0.784,0.783h4.702c0.432,0,0.784-0.352,0.784-0.783c0-0.104-0.021-0.207-0.062-0.303
			c0.712-0.351,1.192-1.008,1.316-1.771c0.688-0.152,1.271-0.547,1.71-1.163c0.406-0.572,0.541-1.135,0.556-1.198l0.003-0.013
			C201.548,197.008,201.43,196.351,201.033,195.864z M200.204,197.571c-0.011,0.04-0.109,0.405-0.362,0.761
			c-0.195,0.275-0.425,0.471-0.693,0.59v-2.625c0.302,0.012,0.741,0.074,0.951,0.331
			C200.256,196.818,200.29,197.136,200.204,197.571z"/>
		<path d="M192.949,190.224c0.653,0.076,1.318,0.086,1.883,0.086c0.184,0,0.368-0.001,0.551-0.002
			c0.285-0.002,0.571-0.004,0.855-0.001h0.042c0.072,0,0.157-0.001,0.246-0.003c0.092-0.001,0.187-0.002,0.276-0.002
			c-0.176,0.034-0.389,0.072-0.579,0.106c-0.385,0.069-0.781,0.14-1.067,0.208l-0.053,0.012c-0.555,0.131-1.393,0.329-1.663,0.928
			c-0.106,0.23-0.099,0.494,0.021,0.723c0.126,0.241,0.36,0.413,0.625,0.459c0.093,0.016,0.192,0.032,0.301,0.032
			c0.177,0,0.354-0.016,0.522-0.049c0.875-0.172,0.882,0.055,0.883,0.079c0.002,0.149-0.287,0.406-0.411,0.516
			c-0.026,0.023-0.049,0.043-0.065,0.059c-0.032,0.031-0.07,0.064-0.111,0.101c-0.25,0.223-0.593,0.529-0.551,0.863
			c0.005,0.041,0.039,0.071,0.08,0.071c0,0,0.001,0,0.002,0c0.042-0.001,0.075-0.034,0.078-0.075c0.01-0.138,0.144-0.258,0.269-0.36
			c0.119-0.097,0.247-0.187,0.372-0.273c0.052-0.036,0.104-0.072,0.155-0.109l0.004-0.002c0.229-0.164,0.609-0.437,0.661-0.764
			c0.021-0.132-0.013-0.257-0.099-0.375c-0.242-0.327-0.677-0.354-1.066-0.354h-0.031c-0.069,0-0.138,0.002-0.208,0.003
			c-0.071,0.002-0.144,0.004-0.215,0.004c-0.124,0-0.224-0.006-0.314-0.018c-0.182-0.023-0.243-0.12-0.201-0.193
			c0.126-0.215,0.763-0.405,1.91-0.554c0.063-0.008,0.112-0.014,0.144-0.019c0.071-0.011,0.142-0.021,0.212-0.032
			c0.407-0.06,0.827-0.122,1.229-0.241c0.717-0.213,0.854-0.574,0.838-0.847c0-0.002,0-0.003,0-0.005v0l-0.001-0.008
			c0-0.005-0.001-0.01-0.001-0.016c0,0,0-0.001,0-0.001c0,0,0,0,0,0l0,0l0,0l0,0c-0.033-0.285-0.23-0.519-0.543-0.639
			c-0.454-0.175-0.985-0.177-1.455-0.179l-0.122,0c-0.401-0.003-0.81,0.006-1.204,0.015c-0.345,0.007-0.702,0.015-1.053,0.015
			s-0.659-0.008-0.943-0.024c-0.219-0.012-0.478-0.031-0.739-0.079c-0.196-0.036-0.441-0.082-0.596-0.213
			c-0.14-0.119,0.005-0.38,0.102-0.502c0.294-0.369,0.807-0.522,1.27-0.623c0.425-0.093,0.89-0.142,1.464-0.155
			c0.369-0.008,0.729,0,1.07,0.027c0.002,0,0.004,0,0.006,0h0.001c0.045,0,0.08-0.036,0.08-0.081c0-0.039-0.027-0.071-0.064-0.079
			c-0.656-0.188-1.354-0.288-2.019-0.288c-0.205,0-0.41,0.01-0.607,0.028c-0.763,0.071-1.743,0.344-2.07,1.239
			c-0.111,0.303-0.095,0.574,0.047,0.806C191.411,189.946,192.278,190.146,192.949,190.224z"/>
	</g>
</g>
</svg>
