<?xml version="1.0" encoding="utf-8"?>
<!-- Generator: Adobe Illustrator 16.0.0, SVG Export Plug-In . SVG Version: 6.00 Build 0)  -->
<!DOCTYPE svg PUBLIC "-//W3C//DTD SVG 1.1//EN" "http://www.w3.org/Graphics/SVG/1.1/DTD/svg11.dtd">
<svg version="1.1" id="Capa_1" xmlns="http://www.w3.org/2000/svg" xmlns:xlink="http://www.w3.org/1999/xlink" x="0px" y="0px"
	 width="16px" height="16px" viewBox="298 298 16 16" enable-background="new 298 298 16 16" xml:space="preserve">
<g>
	<g id="Shape_380">
		<g>
			<path d="M306,298.207c-4.309,0-7.802,3.489-7.802,7.792c0,4.305,3.493,7.794,7.802,7.794c4.309,0,7.802-3.489,7.802-7.794
				C313.802,301.696,310.309,298.207,306,298.207z M305.001,298.804c-0.706,0.733-1.302,1.571-1.768,2.486
				c-0.622-0.256-1.199-0.597-1.72-1.007C302.502,299.509,303.696,298.984,305.001,298.804z M301.107,300.628
				c0.573,0.462,1.211,0.845,1.901,1.132c-0.547,1.221-0.867,2.564-0.902,3.98h-3.375
				C298.803,303.714,299.706,301.902,301.107,300.628z M298.731,306.26h3.375c0.035,1.435,0.363,2.796,0.924,4.029
				c-0.669,0.295-1.29,0.683-1.845,1.149C299.74,310.161,298.805,308.323,298.731,306.26z M301.595,311.777
				c0.503-0.411,1.062-0.755,1.663-1.018c0.463,0.895,1.05,1.715,1.742,2.436C303.73,313.02,302.567,312.517,301.595,311.777z
				 M305.74,313.191c-0.804-0.754-1.48-1.641-1.996-2.624c0.63-0.223,1.3-0.356,1.996-0.392V313.191z M305.74,309.653
				c-0.779,0.036-1.527,0.187-2.229,0.44c-0.536-1.173-0.85-2.469-0.885-3.834h3.114V309.653z M305.74,305.74h-3.114
				c0.035-1.351,0.343-2.633,0.869-3.796c0.708,0.241,1.461,0.382,2.245,0.407V305.74L305.74,305.74z M305.74,301.832
				c-0.703-0.025-1.379-0.149-2.017-0.361c0.519-0.999,1.203-1.899,2.017-2.663V301.832z M313.269,305.74h-3.375
				c-0.035-1.415-0.359-2.756-0.912-3.975c0.693-0.288,1.336-0.673,1.911-1.139C312.295,301.901,313.197,303.714,313.269,305.74z
				 M310.485,300.283c-0.524,0.413-1.105,0.756-1.732,1.014c-0.477-0.922-1.088-1.765-1.812-2.5
				C308.27,298.969,309.482,299.498,310.485,300.283z M306.26,298.859c0.807,0.751,1.486,1.636,2.002,2.618
				c-0.634,0.208-1.305,0.331-2.002,0.356V298.859L306.26,298.859z M306.26,302.351c0.78-0.025,1.529-0.165,2.234-0.404
				c0.533,1.16,0.844,2.442,0.88,3.793h-3.114V302.351z M306.26,306.26h3.114c-0.035,1.344-0.344,2.62-0.872,3.775
				c-0.708-0.236-1.46-0.373-2.242-0.391V306.26z M306.26,313.141v-2.974c0.7,0.017,1.374,0.135,2.01,0.341
				C307.753,311.496,307.071,312.385,306.26,313.141z M306.94,313.203c0.729-0.739,1.343-1.589,1.821-2.518
				c0.629,0.256,1.212,0.602,1.738,1.019C309.494,312.496,308.275,313.031,306.94,313.203z M310.907,311.361
				c-0.578-0.47-1.221-0.859-1.917-1.146c0.548-1.214,0.868-2.549,0.904-3.955h3.374
				C313.197,308.281,312.301,310.089,310.907,311.361z"/>
		</g>
	</g>
</g>
</svg>
