<?xml version="1.0" encoding="utf-8"?>
<!-- Generator: Adobe Illustrator 16.0.0, SVG Export Plug-In . SVG Version: 6.00 Build 0)  -->
<!DOCTYPE svg PUBLIC "-//W3C//DTD SVG 1.1//EN" "http://www.w3.org/Graphics/SVG/1.1/DTD/svg11.dtd">
<svg version="1.1" id="Capa_1" xmlns="http://www.w3.org/2000/svg" xmlns:xlink="http://www.w3.org/1999/xlink" x="0px" y="0px"
	 width="16px" height="16px" viewBox="15.008 15.008 16 16" enable-background="new 15.008 15.008 16 16" xml:space="preserve">
<g>
	<g>
		<path d="M28.49,25.227c-0.253,0.299-0.462,0.651-0.604,1.051h-9.771c-0.151-0.397-0.373-0.75-0.639-1.051h-0.946
			c-0.403,0-0.802-0.114-1.149-0.325h-0.312v1.007c0,0.445,0.29,0.927,0.525,1.13c0.187,0.162,0.584,0.326,0.935,0.326h12.951
			c0.802,0,1.461-0.654,1.461-1.456v-1.243c-0.388,0.349-0.899,0.562-1.461,0.562H28.49L28.49,25.227z"/>
		<path d="M29.483,15.787H16.532c-0.802,0-1.46,0.637-1.46,1.439v5.816c0,0.445,0.29,0.929,0.525,1.134
			c0.187,0.162,0.584,0.326,0.935,0.326h12.951c0.802,0,1.461-0.658,1.461-1.46v-5.816C30.944,16.425,30.284,15.787,29.483,15.787z
			 M29.857,21.408c-0.852,0.306-1.616,1.01-1.97,2.006h-9.771c-0.364-0.96-1.143-1.666-1.958-1.985v-2.581
			c0.834-0.308,1.592-0.996,1.952-1.993h9.786c0.353,1.051,1.092,1.717,1.962,2.011L29.857,21.408L29.857,21.408z"/>
		<path d="M22.995,17.564c-1.421,0-2.574,1.152-2.574,2.575c0,1.422,1.153,2.574,2.574,2.574c1.423,0,2.575-1.152,2.575-2.574
			C25.571,18.717,24.418,17.564,22.995,17.564z M23.207,21.613v0.479h-0.453v-0.446c-0.326-0.015-0.632-0.1-0.813-0.205l0.141-0.557
			c0.2,0.109,0.479,0.209,0.788,0.209c0.271,0,0.456-0.105,0.456-0.295c0-0.181-0.152-0.295-0.504-0.414
			c-0.509-0.171-0.855-0.409-0.855-0.871c0-0.418,0.297-0.747,0.805-0.846v-0.453h0.471v0.42c0.308,0.014,0.529,0.081,0.685,0.157
			l-0.139,0.538c-0.124-0.052-0.344-0.162-0.686-0.162c-0.309,0-0.41,0.133-0.41,0.266c0,0.157,0.166,0.257,0.57,0.41
			c0.566,0.2,0.792,0.461,0.792,0.89C24.056,21.156,23.751,21.517,23.207,21.613z"/>
		<path d="M28.49,28.09c-0.253,0.298-0.462,0.65-0.604,1.051h-9.771c-0.151-0.397-0.373-0.751-0.639-1.051h-0.946
			c-0.403,0-0.802-0.114-1.149-0.326h-0.312v1.008c0,0.445,0.29,0.927,0.525,1.13c0.187,0.162,0.584,0.326,0.935,0.326h12.951
			c0.802,0,1.461-0.654,1.461-1.456v-1.243c-0.388,0.349-0.899,0.562-1.461,0.562H28.49L28.49,28.09z"/>
	</g>
</g>
</svg>
