<?xml version="1.0" encoding="utf-8"?>
<!-- Generator: Adobe Illustrator 16.0.0, SVG Export Plug-In . SVG Version: 6.00 Build 0)  -->
<!DOCTYPE svg PUBLIC "-//W3C//DTD SVG 1.1//EN" "http://www.w3.org/Graphics/SVG/1.1/DTD/svg11.dtd">
<svg version="1.1" id="Capa_1" xmlns="http://www.w3.org/2000/svg" xmlns:xlink="http://www.w3.org/1999/xlink" x="0px" y="0px"
	 width="16px" height="16px" viewBox="465.758 465.758 16 16" enable-background="new 465.758 465.758 16 16" xml:space="preserve">
<g>
	<g>
		<path d="M466.412,475.951h7.87c0.101,0,0.186-0.081,0.184-0.182c-0.016-0.568-0.227-2.28-2.217-2.28h-3.803
			c-1.986,0-2.2,1.712-2.216,2.28C466.226,475.87,466.312,475.951,466.412,475.951z M472.709,474.861c0.234,0,0.234,0.363,0,0.363
			C472.476,475.224,472.476,474.861,472.709,474.861z M471.633,474.135c0.234,0,0.234,0.362,0,0.362
			C471.399,474.497,471.399,474.135,471.633,474.135z M470.346,474.135c0.234,0,0.234,0.362,0,0.362
			C470.112,474.497,470.112,474.135,470.346,474.135z M469.311,474.824c0.234,0,0.234,0.362,0,0.362
			C469.076,475.187,469.076,474.824,469.311,474.824z M468.476,474.062c0.234,0,0.234,0.363,0,0.363
			C468.242,474.425,468.242,474.062,468.476,474.062z M467.568,474.824c0.234,0,0.234,0.362,0,0.362
			C467.334,475.187,467.334,474.824,467.568,474.824z"/>
		<path d="M468.445,480.1h3.803c1.881,0,2.172-0.972,2.211-1.384c0.01-0.1-0.078-0.181-0.179-0.181h-7.869
			c-0.1,0-0.188,0.081-0.178,0.181C466.273,479.128,466.567,480.1,468.445,480.1z"/>
		<path d="M474.405,477.871c0.354,0,0.639-0.286,0.639-0.639s-0.285-0.639-0.639-0.639h-8.118c-0.353,0-0.639,0.286-0.639,0.639
			s0.286,0.639,0.639,0.639H474.405z"/>
		<path d="M481.686,469.943h-1.494l0.182-0.721l0.377-1.497c0.024-0.097-0.034-0.197-0.131-0.223l-0.303-0.081
			c-0.097-0.026-0.195,0.032-0.22,0.129l-0.414,1.671l-0.179,0.721h-5.221c-0.1,0-0.181,0.081-0.181,0.181v0.502
			c0,0.1,0.081,0.181,0.181,0.181h0.373l1.291,9.111c0.015,0.1,0.107,0.181,0.207,0.181h3.655c0.1,0,0.193-0.081,0.207-0.181
			l1.296-9.111h0.373c0.101,0,0.182-0.081,0.182-0.181v-0.502C481.867,470.024,481.786,469.943,481.686,469.943z"/>
	</g>
</g>
</svg>
