<?xml version="1.0" encoding="utf-8"?>
<!-- Generator: Adobe Illustrator 16.0.0, SVG Export Plug-In . SVG Version: 6.00 Build 0)  -->
<!DOCTYPE svg PUBLIC "-//W3C//DTD SVG 1.1//EN" "http://www.w3.org/Graphics/SVG/1.1/DTD/svg11.dtd">
<svg version="1.1" id="Capa_1" xmlns="http://www.w3.org/2000/svg" xmlns:xlink="http://www.w3.org/1999/xlink" x="0px" y="0px"
	 width="16px" height="16px" viewBox="160.656 160.656 16 16" enable-background="new 160.656 160.656 16 16" xml:space="preserve">
<g>
	<g>
		<path d="M163.095,168.449c-0.141,0-0.255,0.114-0.255,0.255v4.939c0,0.142,0.115,0.256,0.255,0.256h1.235
			c0.141,0,0.255-0.114,0.255-0.256v-4.939c0-0.141-0.114-0.255-0.255-0.255H163.095z"/>
		<path d="M168.035,168.449c-0.141,0-0.255,0.114-0.255,0.255v4.939c0,0.142,0.114,0.256,0.255,0.256h1.235
			c0.141,0,0.255-0.114,0.255-0.256v-4.939c0-0.141-0.114-0.255-0.255-0.255H168.035z"/>
		<path d="M172.975,168.449c-0.142,0-0.255,0.114-0.255,0.255v4.939c0,0.142,0.113,0.256,0.255,0.256h1.235
			c0.141,0,0.255-0.114,0.255-0.256v-4.939c0-0.141-0.114-0.255-0.255-0.255H172.975z"/>
		<path d="M175.082,167.938v-0.617c0-0.141-0.114-0.255-0.255-0.255h-12.348c-0.141,0-0.255,0.114-0.255,0.255v0.617
			c0,0.141,0.114,0.255,0.255,0.255h12.348C174.967,168.194,175.082,168.079,175.082,167.938z"/>
		<path d="M175.393,165.682h-13.481c-0.141,0-0.255,0.114-0.255,0.255v0.617c0,0.141,0.114,0.255,0.255,0.255h13.481
			c0.141,0,0.255-0.114,0.255-0.255v-0.617C175.648,165.797,175.534,165.682,175.393,165.682z"/>
		<path d="M176.003,164.678l-7.228-3.999c-0.077-0.042-0.17-0.042-0.247,0l-7.255,4.014c-0.102,0.057-0.153,0.175-0.124,0.287
			c0.029,0.112,0.13,0.191,0.247,0.191h14.51c0.002,0,0.004,0,0.005,0c0.142,0,0.255-0.114,0.255-0.255
			C176.167,164.807,176.099,164.715,176.003,164.678z M168.652,164.281c-0.563,0-1.021-0.458-1.021-1.021s0.458-1.021,1.021-1.021
			s1.021,0.458,1.021,1.021S169.215,164.281,168.652,164.281z"/>
		<circle cx="168.652" cy="163.261" r="0.51"/>
		<path d="M162.223,175.027c0,0.141,0.114,0.256,0.255,0.256h12.349c0.141,0,0.255-0.115,0.255-0.256v-0.617
			c0-0.142-0.114-0.256-0.255-0.256h-12.349c-0.141,0-0.255,0.114-0.255,0.256V175.027z"/>
		<path d="M175.393,175.538h-13.481c-0.141,0-0.255,0.114-0.255,0.255v0.618c0,0.141,0.114,0.255,0.255,0.255h13.481
			c0.141,0,0.255-0.114,0.255-0.255v-0.618C175.648,175.652,175.534,175.538,175.393,175.538z"/>
	</g>
</g>
</svg>
