<?xml version="1.0" encoding="utf-8"?>
<!-- Generator: Adobe Illustrator 16.0.0, SVG Export Plug-In . SVG Version: 6.00 Build 0)  -->
<!DOCTYPE svg PUBLIC "-//W3C//DTD SVG 1.1//EN" "http://www.w3.org/Graphics/SVG/1.1/DTD/svg11.dtd">
<svg version="1.1" id="Capa_1" xmlns="http://www.w3.org/2000/svg" xmlns:xlink="http://www.w3.org/1999/xlink" x="0px" y="0px"
	 width="16px" height="16px" viewBox="289.64 412.945 16 16" enable-background="new 289.64 412.945 16 16" xml:space="preserve">
<g>
	<g>
		<circle fill="#010002" cx="297.64" cy="420.946" r="1.061"/>
		<path fill="#010002" d="M297.64,412.833c-4.48,0-8.113,3.632-8.113,8.113c0,4.481,3.632,8.113,8.113,8.113
			c4.481,0,8.113-3.632,8.113-8.113C305.753,416.465,302.122,412.833,297.64,412.833z M294.547,414.85
			c0.929-0.472,1.98-0.738,3.093-0.738c0.065,0,0.13,0,0.195,0.002c0.107,0.003,0.182,0.271,0.165,0.594l-0.083,1.665
			c-0.016,0.323-0.084,0.582-0.153,0.58c-0.042-0.001-0.083-0.001-0.125-0.001c-0.585,0-1.142,0.126-1.643,0.352
			c-0.295,0.133-0.649,0.054-0.813-0.225l-0.85-1.436C294.17,415.365,294.258,414.997,294.547,414.85z M294.215,417.904
			l-1.254-1.097c-0.244-0.213-0.269-0.585-0.035-0.808c0.005-0.005,0.011-0.01,0.017-0.016c0.235-0.223,0.604-0.177,0.803,0.078
			l1.024,1.314c0.199,0.256,0.246,0.554,0.115,0.679C294.753,418.18,294.459,418.117,294.215,417.904z M294.77,420.946
			c0-1.585,1.285-2.871,2.871-2.871c1.586,0,2.871,1.285,2.871,2.871s-1.285,2.871-2.871,2.871
			C296.055,423.816,294.77,422.531,294.77,420.946z M300.72,427.048c-0.926,0.468-1.972,0.731-3.08,0.731
			c-0.072,0-0.145-0.001-0.217-0.003c-0.12-0.004-0.203-0.272-0.186-0.596l0.091-1.665c0.018-0.323,0.095-0.58,0.172-0.578
			c0.046,0.002,0.093,0.003,0.14,0.003c0.538,0,1.051-0.106,1.519-0.299c0.3-0.123,0.667-0.042,0.844,0.229l0.909,1.398
			C301.088,426.541,301.009,426.901,300.72,427.048z M302.318,425.927c-0.225,0.211-0.588,0.161-0.792-0.09l-1.053-1.292
			c-0.205-0.251-0.257-0.542-0.128-0.661c0.13-0.119,0.423-0.053,0.667,0.161l1.255,1.098
			C302.511,425.356,302.542,425.717,302.318,425.927z"/>
	</g>
</g>
</svg>
