<?xml version="1.0" encoding="utf-8"?>
<!-- Generator: Adobe Illustrator 16.0.0, SVG Export Plug-In . SVG Version: 6.00 Build 0)  -->
<!DOCTYPE svg PUBLIC "-//W3C//DTD SVG 1.1//EN" "http://www.w3.org/Graphics/SVG/1.1/DTD/svg11.dtd">
<svg version="1.1" id="Capa_1" xmlns="http://www.w3.org/2000/svg" xmlns:xlink="http://www.w3.org/1999/xlink" x="0px" y="0px"
	 width="16px" height="16px" viewBox="289.64 412.945 16 16" enable-background="new 289.64 412.945 16 16" xml:space="preserve">
<path d="M302.497,419.139h-1.666v-0.272c0.542-0.402,0.896-1.046,0.896-1.772c0-1.075-0.773-1.973-1.794-2.166
	c-0.296-1.095-1.295-1.89-2.475-1.89c-0.653,0-1.279,0.252-1.75,0.692c-0.168-0.044-0.342-0.067-0.517-0.067
	c-0.831,0-1.557,0.504-1.873,1.229c-0.042-0.002-0.086-0.004-0.129-0.004c-1.216,0-2.205,0.989-2.205,2.205
	c0,0.669,0.3,1.27,0.772,1.674v9.117c0,0.53,0.434,0.965,0.965,0.965h7.145c0.53,0,0.965-0.435,0.965-0.965v-1.415h1.666
	c0.992,0,1.801-0.808,1.801-1.801v-3.73C304.297,419.947,303.489,419.139,302.497,419.139z M299.521,418.077h-5.645v1.963
	c0,0.338-0.274,0.611-0.611,0.611s-0.611-0.273-0.611-0.611v-2.121c-0.27-0.176-0.449-0.479-0.449-0.825
	c0-0.542,0.44-0.982,0.982-0.982c0.122,0,0.241,0.022,0.354,0.066c0.182,0.07,0.385,0.05,0.549-0.054s0.268-0.281,0.281-0.475
	c0.029-0.428,0.387-0.763,0.817-0.763c0.14,0,0.273,0.034,0.395,0.101c0.27,0.149,0.607,0.074,0.789-0.175
	c0.256-0.351,0.652-0.552,1.084-0.552c0.717,0,1.306,0.56,1.341,1.274c0.008,0.164,0.082,0.318,0.205,0.427
	c0.122,0.109,0.284,0.164,0.447,0.152c0.028-0.002,0.051-0.003,0.07-0.003c0.542,0,0.982,0.441,0.982,0.982
	C300.503,417.636,300.063,418.077,299.521,418.077z M302.625,424.67c0,0.068-0.061,0.129-0.129,0.129h-1.666v-3.987h1.666
	c0.068,0,0.129,0.06,0.129,0.128V424.67z"/>
</svg>
