<?xml version="1.0" encoding="utf-8"?>
<!-- Generator: Adobe Illustrator 16.0.0, SVG Export Plug-In . SVG Version: 6.00 Build 0)  -->
<!DOCTYPE svg PUBLIC "-//W3C//DTD SVG 1.1//EN" "http://www.w3.org/Graphics/SVG/1.1/DTD/svg11.dtd">
<svg version="1.1" id="Capa_1" xmlns="http://www.w3.org/2000/svg" xmlns:xlink="http://www.w3.org/1999/xlink" x="0px" y="0px"
	 width="16px" height="16px" viewBox="14.5 14.5 16 16" enable-background="new 14.5 14.5 16 16" xml:space="preserve">
<g>
	<path d="M29.69,28.852c0.24,0.218,0.322,0.752,0.013,1.059c-0.307,0.311-0.842,0.228-1.059-0.012
		c-2.008-2.155-4.015-4.313-6.022-6.469l-0.228-0.243c-2.1,2.254-4.199,4.51-6.299,6.766c-0.216,0.239-0.75,0.321-1.057,0.011
		c-0.31-0.307-0.229-0.842,0.011-1.059c2.263-2.104,4.524-4.21,6.786-6.315c0,0-1.095-1.182-1.567-1.688
		c-1.105,0.792-2.742,0.491-3.727-0.724c-1.058-1.282-1.971-3.575-1.087-4.514c0.94-0.884,3.231,0.031,4.513,1.088
		c1.215,0.985,1.518,2.62,0.724,3.726c0.569,0.53,1.138,1.059,1.708,1.588c-0.001,0.001-0.002,0.002-0.003,0.003
		c0,0,0.036,0.028,0.003-0.003c0.532-0.496,1.065-0.991,1.597-1.487c-0.45-0.768-0.151-1.845,0.579-2.459
		c0.838-0.702,3.941-3.367,4.025-3.283c0.083,0.083-2.094,2.14-3.548,3.599l0.242,0.242c1.553-1.36,3.744-3.401,3.829-3.318
		c0.083,0.083-2.026,2.208-3.434,3.715l0.241,0.24c1.505-1.408,3.63-3.517,3.713-3.435c0.083,0.084-1.958,2.276-3.318,3.828
		l0.241,0.241c1.457-1.454,3.514-3.631,3.598-3.549c0.084,0.084-3.276,4.021-3.281,4.027c-0.001,0,0.713-0.838-0.003-0.002
		c-0.684,0.799-1.704,1.042-2.458,0.581c-0.49,0.525-0.979,1.051-1.468,1.577C22.911,22.543,27.446,26.763,29.69,28.852z"/>
</g>
</svg>
