<?xml version="1.0" encoding="utf-8"?>
<!-- Generator: Adobe Illustrator 16.0.0, SVG Export Plug-In . SVG Version: 6.00 Build 0)  -->
<!DOCTYPE svg PUBLIC "-//W3C//DTD SVG 1.1//EN" "http://www.w3.org/Graphics/SVG/1.1/DTD/svg11.dtd">
<svg version="1.1" id="Capa_1" xmlns="http://www.w3.org/2000/svg" xmlns:xlink="http://www.w3.org/1999/xlink" x="0px" y="0px"
	 width="16px" height="16px" viewBox="244.128 244.128 16 16" enable-background="new 244.128 244.128 16 16" xml:space="preserve">
<g>
	<path d="M259.225,248.17l-11.397-0.002l-0.478-1.644c-0.071-0.245-0.269-0.439-0.516-0.506l-1.671-0.452
		c-0.063-0.017-0.128-0.025-0.192-0.025c-0.332,0-0.625,0.224-0.711,0.544c-0.052,0.189-0.026,0.388,0.072,0.559
		c0.098,0.17,0.256,0.292,0.446,0.344l1.272,0.344l2.583,9.315c-0.368,0.182-0.606,0.559-0.606,0.978
		c0,0.601,0.488,1.088,1.089,1.088s1.089-0.487,1.089-1.088c0-0.015,0-0.029,0-0.043h5.258c-0.001,0.014-0.001,0.028-0.001,0.043
		c0,0.601,0.489,1.088,1.09,1.088c0.6,0,1.088-0.487,1.088-1.088c0-0.553-0.419-1.016-0.956-1.081
		c-1.308-0.211-6.641-0.469-6.641-0.469l-0.175-0.686h6.654c0.34,0,0.644-0.229,0.736-0.557l1.438-5.066h0.529
		c0.44,0,0.798-0.357,0.798-0.798C260.022,248.528,259.665,248.17,259.225,248.17z M250.748,253.695H249.5
		c-0.034-0.001-0.084,0.007-0.106-0.073c-0.029-0.103-0.07-0.242-0.07-0.242l-0.978-3.444c-0.005-0.017-0.001-0.035,0.009-0.049
		c0.011-0.014,0.028-0.022,0.045-0.022h1.516c0.026,0,0.049,0.018,0.055,0.044l0.827,3.702l0.003,0.013
		c0.002,0.005,0.002,0.01,0.002,0.016C250.803,253.669,250.778,253.694,250.748,253.695z M253.932,249.932l-0.674,3.718
		c-0.007,0.025-0.028,0.044-0.056,0.044h-0.94c-0.026,0-0.049-0.019-0.055-0.045l-0.674-3.717c-0.003-0.017,0-0.034,0.011-0.047
		s0.026-0.021,0.043-0.021h2.289c0.017,0,0.032,0.007,0.043,0.021S253.935,249.915,253.932,249.932z M257.118,249.935l-1.055,3.718
		c-0.008,0.024-0.029,0.041-0.054,0.041h-1.291c-0.018,0-0.033-0.009-0.044-0.021s-0.015-0.03-0.011-0.047l0.829-3.718
		c0.006-0.025,0.029-0.044,0.055-0.044h1.517c0.018,0,0.034,0.008,0.045,0.022C257.119,249.9,257.123,249.918,257.118,249.935z"/>
</g>
</svg>
