<?xml version="1.0" encoding="utf-8"?>
<!-- Generator: Adobe Illustrator 16.0.0, SVG Export Plug-In . SVG Version: 6.00 Build 0)  -->
<!DOCTYPE svg PUBLIC "-//W3C//DTD SVG 1.1//EN" "http://www.w3.org/Graphics/SVG/1.1/DTD/svg11.dtd">
<svg version="1.1"
	 id="svg2" xmlns:dc="http://purl.org/dc/elements/1.1/" xmlns:svg="http://www.w3.org/2000/svg" xmlns:cc="http://creativecommons.org/ns#" xmlns:rdf="http://www.w3.org/1999/02/22-rdf-syntax-ns#"
	 xmlns="http://www.w3.org/2000/svg" xmlns:xlink="http://www.w3.org/1999/xlink" x="0px" y="0px" width="16px" height="16px"
	 viewBox="289.64 412.945 16 16" enable-background="new 289.64 412.945 16 16" xml:space="preserve">
<rect id="canvas" y="123.305" display="none" fill="none" width="595.281" height="595.28"/>
<path id="path4182" fill="#64929A" d="M300.653,413.098c-1.586,0-2.657,1.642-3.191,2.877c-0.535-1.295-1.567-2.949-3.153-2.949
	c-2.38,0-3.173,3.051-3.173,4.638s1.586,1.07,1.586,0.048c1.586-3.172,3.172-2.56,3.557,2.455v0.554
	c-0.607-0.3-1.288-0.489-1.97-0.489c-2.328,0-4.362,1.638-4.362,4.759v1.586c0,1.586,2.379,1.586,2.379,0v-1.586
	c0-1.532,1.083-2.38,1.983-2.38c0.871,0,1.906,0.851,1.97,2.25v0.064v3.938c0.939-0.215,1.674-0.199,2.354,0l0.037-3.872v-0.199
	c0.065-1.396,1.1-2.245,1.97-2.245c0.899,0,1.983,0.847,1.983,2.379v1.586c0,1.586,2.379,1.586,2.379,0v-1.586
	c0-3.121-2.034-4.758-4.362-4.758c-0.683,0-1.362,0.192-1.97,0.492c0-0.142-0.026-0.287,0-0.427
	c0.396-4.353,1.982-5.644,3.568-2.472c0,0.837,1.587,1.465,1.587-0.121C303.826,416.053,303.033,413.098,300.653,413.098z"/>
</svg>
