<?xml version="1.0" encoding="utf-8"?>
<!-- Generator: Adobe Illustrator 16.0.0, SVG Export Plug-In . SVG Version: 6.00 Build 0)  -->
<!DOCTYPE svg PUBLIC "-//W3C//DTD SVG 1.1//EN" "http://www.w3.org/Graphics/SVG/1.1/DTD/svg11.dtd">
<svg version="1.1"
	 id="svg2" xmlns:dc="http://purl.org/dc/elements/1.1/" xmlns:svg="http://www.w3.org/2000/svg" xmlns:cc="http://creativecommons.org/ns#" xmlns:rdf="http://www.w3.org/1999/02/22-rdf-syntax-ns#"
	 xmlns="http://www.w3.org/2000/svg" xmlns:xlink="http://www.w3.org/1999/xlink" x="0px" y="0px" width="8px" height="8px"
	 viewBox="293.64 416.945 8 8" enable-background="new 293.64 416.945 8 8" xml:space="preserve">
<rect id="canvas" y="123.305" display="none" fill="none" width="595.281" height="595.28"/>
<path id="path4182" fill="#64929A" d="M299.008,417.243c-0.766,0-1.282,0.792-1.54,1.389c-0.258-0.626-0.757-1.423-1.522-1.423
	c-1.148,0-1.531,1.472-1.531,2.237s0.766,0.516,0.766,0.024c0.765-1.531,1.53-1.235,1.716,1.184v0.268
	c-0.292-0.145-0.621-0.236-0.951-0.236c-1.123,0-2.104,0.791-2.104,2.296v0.765c0,0.767,1.148,0.767,1.148,0v-0.765
	c0-0.739,0.522-1.148,0.957-1.148c0.421,0,0.92,0.41,0.951,1.086v0.031v1.9c0.577-0.155,0.577-0.155,1.137,0l0.018-1.869v-0.096
	c0.031-0.674,0.53-1.083,0.95-1.083c0.435,0,0.957,0.408,0.957,1.147v0.766c0,0.766,1.148,0.766,1.148,0v-0.766
	c0-1.506-0.982-2.296-2.105-2.296c-0.328,0-0.656,0.093-0.95,0.237c0-0.068-0.013-0.138,0-0.206
	c0.191-2.101,0.957-2.724,1.722-1.193c0,0.404,0.765,0.707,0.765-0.059C300.539,418.669,300.157,417.243,299.008,417.243z"/>
</svg>
