<?xml version="1.0" encoding="utf-8"?>
<!-- Generator: Adobe Illustrator 16.0.0, SVG Export Plug-In . SVG Version: 6.00 Build 0)  -->
<!DOCTYPE svg PUBLIC "-//W3C//DTD SVG 1.1//EN" "http://www.w3.org/Graphics/SVG/1.1/DTD/svg11.dtd">
<svg version="1.1" id="Capa_1" xmlns="http://www.w3.org/2000/svg" xmlns:xlink="http://www.w3.org/1999/xlink" x="0px" y="0px"
	 width="16px" height="16px" viewBox="238.263 238.263 16 16" enable-background="new 238.263 238.263 16 16" xml:space="preserve">
<g>
	<g>
		<path d="M246.784,245.019c-0.179-1.832-0.868-3.4-0.897-3.466c-0.064-0.144-0.196-0.247-0.351-0.273s-0.313,0.026-0.422,0.141
			c-0.977,1.03-1.869,1.628-2.808,1.883c-0.938,0.254-1.977,0.182-3.265-0.23c-0.152-0.048-0.319-0.017-0.442,0.085
			s-0.188,0.258-0.169,0.417c0.008,0.072,0.207,1.773,0.977,3.445c1.069,2.322,2.715,3.44,4.758,3.233
			c0.025-0.002,0.051-0.006,0.076-0.013c0.025-0.008,0.049-0.016,0.073-0.027C246.18,249.359,247.035,247.562,246.784,245.019z
			 M239.82,245.424c-0.028-0.383,0.458-0.732,1.086-0.778c0.628-0.046,1.161,0.228,1.188,0.611c0.029,0.383-0.474,0.517-1.102,0.563
			C240.365,245.865,239.849,245.807,239.82,245.424z M243.834,248.744c-1.161,0.315-2.247,0.037-2.425-0.62
			c-0.013-0.048-0.02-0.096-0.023-0.143c0.566,0.239,1.392,0.271,2.251,0.039c0.859-0.233,1.555-0.679,1.923-1.172
			c0.022,0.043,0.04,0.088,0.052,0.135C245.791,247.64,244.995,248.429,243.834,248.744z M244.808,244.785
			c-0.565,0.277-1.066,0.416-1.236,0.071s0.152-0.85,0.717-1.128c0.566-0.277,1.162-0.223,1.331,0.123
			C245.79,244.196,245.374,244.507,244.808,244.785z"/>
		<path d="M254.013,245.521c-0.09-0.129-0.239-0.204-0.396-0.2c-1.42,0.038-2.474-0.17-3.318-0.654
			c-0.843-0.483-1.524-1.269-2.146-2.471c-0.072-0.143-0.213-0.237-0.372-0.253c-0.159-0.016-0.315,0.05-0.415,0.175
			c-0.021,0.026-0.264,0.333-0.582,0.83c0.117,0.416,0.232,0.893,0.318,1.404c0.276-0.218,0.816-0.106,1.258,0.275
			c0.478,0.412,0.66,0.981,0.408,1.273c-0.25,0.291-0.7,0.03-1.177-0.382c-0.147-0.127-0.279-0.253-0.385-0.376
			c0.098,1.05,0.021,1.996-0.228,2.825c0.388,0.049,0.819,0.193,1.237,0.433c1.043,0.599,1.613,1.563,1.275,2.155
			c-0.024,0.042-0.054,0.081-0.085,0.116c-0.231-0.57-0.791-1.177-1.563-1.62c-0.366-0.21-0.741-0.359-1.098-0.451
			c-0.018,0.04-0.036,0.079-0.054,0.117c-0.223,0.469-0.509,0.885-0.856,1.246c0.229,0.34,0.516,0.652,0.86,0.934
			c0.02,0.016,0.042,0.03,0.063,0.044c0.023,0.013,0.046,0.023,0.071,0.032c1.925,0.717,3.8,0.052,5.423-1.924
			c1.167-1.423,1.79-3.019,1.816-3.086C254.125,245.816,254.105,245.65,254.013,245.521z M252.254,247.398
			c-0.124,0.364-0.638,0.29-1.234,0.086c-0.597-0.203-1.049-0.459-0.924-0.823c0.124-0.364,0.708-0.494,1.304-0.29
			C251.997,246.574,252.378,247.035,252.254,247.398z"/>
	</g>
</g>
</svg>
